{"glyphs":{"0":{"ha":754,"x_min":0,"x_max":0,"o":"m 378 -22 b 671 314 558 -22 671 107 l 671 658 b 378 994 671 865 558 994 b 83 658 197 994 83 865 l 83 314 b 378 -22 83 107 197 -22 z m 378 15 b 125 314 222 15 125 131 l 125 658 b 378 957 125 842 222 957 b 629 658 532 957 629 842 l 629 314 b 378 15 629 131 532 15 z "},"1":{"ha":264,"x_min":0,"x_max":0,"o":"m 111 0 l 153 0 l 153 972 l 111 972 z m 132 -21 b 153 0 143 -21 153 -11 l 153 32 l 111 32 l 111 0 b 132 -21 111 -11 121 -21 z m 132 993 b 111 972 121 993 111 983 l 111 940 l 153 940 l 153 972 b 132 993 153 983 143 993 z "},"2":{"ha":754,"x_min":0,"x_max":0,"o":"m 146 0 l 160 0 b 671 658 160 129 671 281 b 378 994 671 865 558 994 b 100 788 239 994 139 917 b 111 750 92 760 106 751 b 140 772 122 747 135 751 b 378 957 172 888 257 957 b 629 658 532 957 629 842 b 121 22 629 311 121 143 b 146 0 121 14 121 0 z m 146 0 l 628 0 l 628 38 l 146 38 z m 614 0 l 646 0 b 667 19 657 0 667 8 b 646 38 667 29 657 38 l 614 38 z "},"3":{"ha":754,"x_min":0,"x_max":0,"o":"m 361 463 l 457 463 b 671 707 589 463 671 553 b 378 994 671 872 550 994 b 100 788 239 994 139 917 b 111 750 92 760 106 751 b 140 772 122 747 135 751 b 378 957 172 888 257 957 b 629 707 525 957 629 850 b 457 500 629 575 563 500 l 361 500 z m 378 -32 b 671 256 550 -32 671 90 b 457 500 671 410 589 500 l 361 500 l 361 463 l 457 463 b 629 256 563 463 629 388 b 378 6 629 113 525 6 b 140 190 257 6 172 75 b 111 213 135 211 122 215 b 100 175 106 211 92 203 b 378 -32 139 46 239 -32 z m 393 463 l 393 500 l 361 500 b 340 482 350 500 340 492 b 361 463 340 471 350 463 z "},"4":{"ha":726,"x_min":0,"x_max":0,"o":"m 107 342 l 390 944 l 357 961 l 74 357 z m 96 319 l 601 319 l 601 357 l 74 357 b 96 319 64 338 68 319 z m 574 0 l 615 0 l 615 972 l 574 972 z m 594 -21 b 615 0 606 -21 615 -11 l 615 32 l 574 32 l 574 0 b 594 -21 574 -11 583 -21 z m 594 993 b 574 972 583 993 574 983 l 574 940 l 615 940 l 615 972 b 594 993 615 983 606 993 z m 385 932 l 399 961 b 390 988 404 972 400 983 b 364 978 381 993 369 988 l 350 949 z "},"5":{"ha":740,"x_min":0,"x_max":0,"o":"m 364 -22 b 657 314 544 -22 657 107 b 167 608 657 726 244 628 l 167 569 b 615 314 244 589 615 690 b 364 15 615 131 518 15 b 126 200 243 15 158 85 b 97 222 121 221 108 225 b 86 185 92 221 78 213 b 364 -22 125 56 225 -22 z m 167 569 l 235 972 l 228 972 b 188 936 199 972 190 950 l 131 594 b 167 569 128 575 135 563 z m 228 935 l 531 935 l 531 972 l 228 972 z m 517 935 l 549 935 b 569 953 560 935 569 943 b 549 972 569 964 560 972 l 517 972 z "},"6":{"ha":754,"x_min":0,"x_max":0,"o":"m 592 831 b 622 822 601 813 617 818 b 628 853 628 826 636 838 b 378 994 579 943 492 994 b 83 658 197 994 83 865 l 83 314 b 378 -22 83 107 197 -22 b 671 314 558 -22 671 107 b 378 650 671 521 558 650 b 125 504 263 650 174 597 l 125 658 b 378 957 125 842 222 957 b 592 831 475 957 549 910 z m 125 314 b 378 613 125 497 222 613 b 629 314 532 613 629 497 b 378 15 629 131 532 15 b 125 314 222 15 125 131 z "},"7":{"ha":644,"x_min":0,"x_max":0,"o":"m 543 972 l 260 0 l 301 0 l 572 935 b 543 972 576 950 582 972 z m 275 -21 b 300 -6 286 -21 296 -17 l 310 29 l 268 29 l 260 0 b 275 -21 256 -11 264 -21 z m 90 935 l 543 935 l 543 972 l 90 972 b 69 953 76 972 69 964 b 90 935 69 942 79 935 z "},"8":{"ha":754,"x_min":0,"x_max":0,"o":"m 378 -22 b 671 314 558 -22 671 107 b 468 638 671 483 596 601 b 583 807 539 667 583 728 b 376 993 583 917 497 993 b 168 807 254 993 168 917 b 285 638 168 728 214 665 b 83 314 160 600 83 483 b 378 -22 83 107 197 -22 z m 378 15 b 125 314 222 15 125 131 b 378 613 125 497 222 613 b 629 314 532 613 629 497 b 378 15 629 131 532 15 z m 376 656 b 210 807 279 656 210 718 b 376 956 210 894 279 956 b 542 807 474 956 542 894 b 376 656 542 718 474 656 z "},"9":{"ha":754,"x_min":0,"x_max":0,"o":"m 163 142 b 132 150 153 160 138 154 b 126 119 126 146 118 135 b 376 -22 175 29 263 -22 b 671 314 557 -22 671 107 l 671 658 b 376 994 671 865 557 994 b 83 658 196 994 83 865 b 376 322 83 451 196 322 b 629 468 492 322 581 375 l 629 314 b 376 15 629 131 532 15 b 163 142 279 15 206 63 z m 125 658 b 376 957 125 842 222 957 b 629 658 532 957 629 842 b 376 360 629 475 532 360 b 125 658 222 360 125 475 z "}," ":{"ha":278,"x_min":0,"x_max":0,"o":""}," ":{"ha":278,"x_min":0,"x_max":0,"o":""},"A":{"ha":949,"x_min":0,"x_max":0,"o":"m 125 326 l 815 326 l 815 364 l 125 364 z m 111 617 l 111 0 l 153 0 l 153 617 b 475 957 153 811 288 957 b 796 617 663 957 796 811 l 796 0 l 838 0 l 838 617 b 475 994 838 832 686 994 b 111 617 263 994 111 832 z m 132 -21 b 153 0 143 -21 153 -11 l 153 32 l 111 32 l 111 0 b 132 -21 111 -11 121 -21 z m 817 -21 b 838 0 828 -21 838 -11 l 838 32 l 796 32 l 796 0 b 817 -21 796 -11 806 -21 z "},"B":{"ha":919,"x_min":0,"x_max":0,"o":"m 228 0 l 636 0 b 850 292 758 0 850 125 b 696 574 850 431 786 540 b 781 760 751 608 781 678 b 594 972 781 881 717 972 l 228 972 b 111 854 164 972 111 919 l 111 118 b 228 0 111 53 164 0 z m 228 935 l 594 935 b 739 760 693 935 739 860 b 594 583 739 658 693 583 l 153 583 l 153 856 b 228 935 153 894 192 935 z m 153 546 l 636 546 b 808 292 735 546 808 438 b 636 38 808 146 735 38 l 228 38 b 153 117 192 38 153 78 z "},"C":{"ha":911,"x_min":0,"x_max":0,"o":"m 461 -22 b 826 254 639 -22 783 92 b 814 278 829 265 824 276 b 786 265 801 282 789 276 b 461 15 747 118 618 15 b 125 356 274 15 125 161 l 125 617 b 461 957 125 811 274 957 b 786 707 618 957 747 854 b 814 693 789 696 801 690 b 826 718 824 696 829 707 b 461 994 783 881 639 994 b 83 617 249 994 83 832 l 83 356 b 461 -22 83 140 249 -22 z "},"D":{"ha":908,"x_min":0,"x_max":0,"o":"m 228 0 l 456 0 b 825 356 667 0 825 140 l 825 617 b 458 972 825 831 668 971 l 228 972 b 111 854 164 972 111 919 l 111 118 b 228 0 111 53 164 0 z m 228 935 l 456 935 b 783 617 643 935 783 811 l 783 356 b 456 38 783 161 643 38 l 228 38 b 153 117 192 38 153 78 l 153 856 b 228 935 153 894 192 935 z "},"E":{"ha":825,"x_min":0,"x_max":0,"o":"m 111 524 l 153 524 l 153 676 b 392 935 153 832 257 935 l 392 972 b 111 676 225 972 111 851 z m 392 38 b 153 296 257 38 153 140 l 153 449 l 111 449 l 111 296 b 392 0 111 121 225 0 z m 390 0 l 735 0 b 756 18 746 0 756 8 b 735 38 756 29 746 38 l 390 38 z m 111 296 l 153 296 l 153 694 l 111 694 z m 125 544 l 657 544 l 657 582 l 125 582 z m 111 524 l 153 524 l 153 676 b 392 935 153 832 257 935 l 392 972 b 111 676 225 972 111 851 z m 643 544 l 675 544 b 696 563 686 544 696 553 b 675 582 696 574 686 582 l 643 582 z m 390 935 l 735 935 b 756 953 746 935 756 943 b 735 972 756 964 746 972 l 390 972 z "},"F":{"ha":825,"x_min":0,"x_max":0,"o":"m 111 524 l 153 524 l 153 676 b 392 935 153 832 257 935 l 392 972 b 111 676 225 972 111 851 z m 111 0 l 153 0 l 153 694 l 111 694 z m 125 503 l 657 503 l 657 540 l 125 540 z m 643 503 l 675 503 b 696 521 686 503 696 511 b 675 540 696 532 686 540 l 643 540 z m 390 935 l 735 935 b 756 953 746 935 756 943 b 735 972 756 964 746 972 l 390 972 z m 132 -21 b 153 0 143 -21 153 -11 l 153 32 l 111 32 l 111 0 b 132 -21 111 -11 121 -21 z "},"G":{"ha":921,"x_min":0,"x_max":0,"o":"m 461 -22 b 838 356 672 -22 838 140 l 838 450 b 796 488 838 471 819 488 l 493 488 l 493 450 l 796 450 l 796 356 b 461 15 796 161 649 15 b 125 356 274 15 125 161 l 125 617 b 461 957 125 811 274 957 b 786 707 618 957 747 854 b 814 693 789 696 801 690 b 826 718 824 696 829 707 b 461 994 783 881 639 994 b 83 617 249 994 83 832 l 83 356 b 461 -22 83 140 249 -22 z m 525 450 l 525 488 l 493 488 b 472 468 482 488 472 479 b 493 450 472 458 482 450 z "},"H":{"ha":907,"x_min":0,"x_max":0,"o":"m 129 535 l 779 535 l 779 572 l 129 572 z m 111 0 l 153 0 l 153 972 l 111 972 z m 132 -21 b 153 0 143 -21 153 -11 l 153 32 l 111 32 l 111 0 b 132 -21 111 -11 121 -21 z m 132 993 b 111 972 121 993 111 983 l 111 940 l 153 940 l 153 972 b 132 993 153 983 143 993 z m 754 0 l 796 0 l 796 972 l 754 972 z m 775 -21 b 796 0 786 -21 796 -11 l 796 32 l 754 32 l 754 0 b 775 -21 754 -11 764 -21 z m 775 993 b 754 972 764 993 754 983 l 754 940 l 796 940 l 796 972 b 775 993 796 983 786 993 z "},"I":{"ha":264,"x_min":0,"x_max":0,"o":"m 111 0 l 153 0 l 153 972 l 111 972 z m 132 -21 b 153 0 143 -21 153 -11 l 153 32 l 111 32 l 111 0 b 132 -21 111 -11 121 -21 z m 132 993 b 111 972 121 993 111 983 l 111 940 l 153 940 l 153 972 b 132 993 153 983 143 993 z "},"J":{"ha":838,"x_min":0,"x_max":0,"o":"m 350 -22 b 726 356 561 -22 726 140 l 726 935 b 685 972 726 956 708 972 l 451 972 l 451 935 l 685 935 l 685 356 b 350 15 685 161 538 15 b 107 118 254 15 169 56 b 75 121 97 128 83 129 b 78 89 67 113 68 101 b 350 -22 146 19 242 -22 z m 465 935 l 465 972 l 433 972 b 413 953 422 972 413 964 b 433 935 413 943 422 935 z "},"K":{"ha":963,"x_min":0,"x_max":0,"o":"m 111 254 l 111 0 l 153 0 l 153 254 b 489 593 153 449 301 593 b 824 254 676 593 824 449 l 824 0 l 865 0 l 865 254 b 489 632 865 469 700 632 b 111 254 276 632 111 469 z m 111 0 l 153 0 l 153 972 l 111 972 z m 132 -21 b 153 0 143 -21 153 -11 l 153 32 l 111 32 l 111 0 b 132 -21 111 -11 121 -21 z m 132 993 b 111 972 121 993 111 983 l 111 940 l 153 940 l 153 972 b 132 993 153 983 143 993 z m 844 -21 b 865 0 856 -21 865 -11 l 865 32 l 824 32 l 824 0 b 844 -21 824 -11 833 -21 z m 454 631 l 469 593 b 824 972 669 604 824 764 l 782 972 b 454 631 782 788 642 640 z m 782 969 l 824 969 l 824 972 b 803 993 824 983 814 993 b 782 972 792 993 782 983 z "},"L":{"ha":836,"x_min":0,"x_max":0,"o":"m 111 118 l 153 118 l 153 972 l 111 972 z m 228 0 l 261 0 l 261 38 l 228 38 b 153 117 192 38 153 78 l 153 144 l 111 144 l 111 118 b 228 0 111 53 164 0 z m 228 0 l 732 0 l 732 38 l 228 38 z m 700 0 l 732 0 b 753 19 743 0 753 8 b 732 38 753 29 743 38 l 700 38 z m 132 993 b 111 972 121 993 111 983 l 111 940 l 153 940 l 153 972 b 132 993 153 983 143 993 z "},"M":{"ha":1522,"x_min":0,"x_max":0,"o":"m 111 617 l 111 0 l 153 0 l 153 617 b 447 957 153 811 260 957 b 740 617 635 957 740 811 l 740 0 l 782 0 l 782 617 b 447 994 782 832 658 994 b 111 617 235 994 111 832 z m 132 -21 b 153 0 143 -21 153 -11 l 153 32 l 111 32 l 111 0 b 132 -21 111 -11 121 -21 z m 761 -21 b 782 0 772 -21 782 -11 l 782 32 l 740 32 l 740 0 b 761 -21 740 -11 750 -21 z m 740 617 l 740 0 l 782 0 l 782 617 b 1076 957 782 811 889 957 b 1369 617 1264 957 1369 811 l 1369 0 l 1411 0 l 1411 617 b 1076 994 1411 832 1288 994 b 740 617 864 994 740 832 z m 1390 -21 b 1411 0 1401 -21 1411 -11 l 1411 32 l 1369 32 l 1369 0 b 1390 -21 1369 -11 1379 -21 z "},"N":{"ha":976,"x_min":0,"x_max":0,"o":"m 111 617 l 111 0 l 153 0 l 153 617 b 489 957 153 811 301 957 b 824 617 676 957 824 811 l 824 0 l 865 0 l 865 617 b 489 994 865 832 700 994 b 111 617 276 994 111 832 z m 132 -21 b 153 0 143 -21 153 -11 l 153 32 l 111 32 l 111 0 b 132 -21 111 -11 121 -21 z m 844 -21 b 865 0 856 -21 865 -11 l 865 32 l 824 32 l 824 0 b 844 -21 824 -11 833 -21 z "},"O":{"ha":921,"x_min":0,"x_max":0,"o":"m 461 -22 b 838 356 672 -22 838 140 l 838 617 b 461 994 838 832 672 994 b 83 617 249 994 83 832 l 83 356 b 461 -22 83 140 249 -22 z m 461 15 b 125 356 274 15 125 161 l 125 617 b 461 957 125 811 274 957 b 796 617 649 957 796 811 l 796 356 b 461 15 796 161 649 15 z "},"P":{"ha":919,"x_min":0,"x_max":0,"o":"m 600 389 l 636 389 b 850 681 758 389 850 514 b 636 972 850 847 758 972 l 600 972 l 600 935 l 636 935 b 808 681 735 935 808 826 b 636 426 808 535 735 426 l 600 426 z m 111 0 l 153 0 l 153 854 l 111 854 z m 136 389 l 636 389 l 636 426 l 136 426 z m 111 854 l 111 828 l 153 828 l 153 856 b 228 935 153 894 192 935 l 261 935 l 261 972 l 228 972 b 111 854 164 972 111 919 z m 228 935 l 636 935 l 636 972 l 228 972 z m 132 -21 b 153 0 143 -21 153 -11 l 153 32 l 111 32 l 111 0 b 132 -21 111 -11 121 -21 z "},"Q":{"ha":921,"x_min":0,"x_max":0,"o":"m 774 -1 l 804 29 l 631 201 l 601 172 z m 461 -22 b 838 356 672 -22 838 140 l 838 617 b 461 994 838 832 672 994 b 83 617 249 994 83 832 l 83 356 b 461 -22 83 140 249 -22 z m 461 15 b 125 356 274 15 125 161 l 125 617 b 461 957 125 811 274 957 b 796 617 649 957 796 811 l 796 356 b 461 15 796 161 649 15 z m 818 -14 b 824 1 822 -10 824 -6 b 818 15 824 7 822 11 l 796 38 l 765 8 l 789 -14 b 804 -21 793 -18 797 -21 b 818 -14 810 -21 814 -18 z m 603 201 b 596 188 599 197 596 193 b 603 172 596 181 599 176 l 625 149 l 654 179 l 632 201 b 618 207 628 206 624 207 b 603 201 611 207 607 206 z "},"R":{"ha":933,"x_min":0,"x_max":0,"o":"m 808 135 l 808 0 l 850 0 l 850 135 b 636 426 850 301 758 426 l 600 426 l 600 389 l 636 389 b 808 135 735 389 808 281 z m 600 389 l 636 389 b 850 681 758 389 850 514 b 636 972 850 847 758 972 l 600 972 l 600 935 l 636 935 b 808 681 735 935 808 826 b 636 426 808 535 735 426 l 600 426 z m 111 0 l 153 0 l 153 854 l 111 854 z m 136 389 l 636 389 l 636 426 l 136 426 z m 111 854 l 111 828 l 153 828 l 153 856 b 228 935 153 894 192 935 l 261 935 l 261 972 l 228 972 b 111 854 164 972 111 919 z m 228 935 l 636 935 l 636 972 l 228 972 z m 132 -21 b 153 0 143 -21 153 -11 l 153 32 l 111 32 l 111 0 b 132 -21 111 -11 121 -21 z m 829 -21 b 850 0 840 -21 850 -11 l 850 32 l 808 32 l 808 0 b 829 -21 808 -11 818 -21 z "},"S":{"ha":913,"x_min":0,"x_max":0,"o":"m 565 0 l 601 0 b 815 292 724 0 815 125 b 601 583 815 458 724 583 l 565 583 l 565 546 l 601 546 b 774 292 700 546 774 438 b 601 38 774 146 700 38 l 565 38 z m 318 546 l 601 546 l 601 583 l 318 583 z m 318 546 l 354 546 l 354 583 l 318 583 b 174 760 219 583 174 658 b 318 935 174 860 219 935 l 354 935 l 354 972 l 318 972 b 132 760 196 972 132 881 b 318 546 132 638 196 546 z m 347 935 l 678 935 b 699 953 689 935 699 943 b 678 972 699 964 689 972 l 347 972 z m 579 0 l 579 38 l 118 38 b 97 18 107 38 97 29 b 118 0 97 8 107 0 z "},"T":{"ha":921,"x_min":0,"x_max":0,"o":"m 439 0 l 481 0 l 481 972 l 439 972 z m 129 935 l 129 972 l 90 972 b 69 953 79 972 69 964 b 90 935 69 943 79 935 z m 90 935 l 831 935 l 831 972 l 90 972 z m 792 935 l 831 935 b 851 953 842 935 851 943 b 831 972 851 964 842 972 l 792 972 z m 460 -21 b 481 0 471 -21 481 -11 l 481 32 l 439 32 l 439 0 b 460 -21 439 -11 449 -21 z "},"U":{"ha":976,"x_min":0,"x_max":0,"o":"m 111 356 b 489 -22 111 140 276 -22 b 865 356 700 -22 865 140 l 865 972 l 824 972 l 824 356 b 489 15 824 161 676 15 b 153 356 301 15 153 161 l 153 972 l 111 972 z m 132 993 b 111 972 121 993 111 983 l 111 940 l 153 940 l 153 972 b 132 993 153 983 143 993 z m 844 993 b 824 972 833 993 824 983 l 824 940 l 865 940 l 865 972 b 844 993 865 983 856 993 z "},"V":{"ha":976,"x_min":0,"x_max":0,"o":"m 489 -22 b 865 356 644 -22 865 182 l 865 972 l 824 972 l 824 361 b 489 15 824 203 621 15 b 153 361 357 15 153 203 l 153 972 l 111 972 l 111 356 b 489 -22 111 182 332 -22 z m 132 993 b 111 972 121 993 111 983 l 111 940 l 153 940 l 153 972 b 132 993 153 983 143 993 z m 844 993 b 824 972 833 993 824 983 l 824 940 l 865 940 l 865 972 b 844 993 865 983 856 993 z "},"W":{"ha":1522,"x_min":0,"x_max":0,"o":"m 111 356 b 447 -22 111 140 235 -22 b 782 356 658 -22 782 140 l 782 972 l 740 972 l 740 356 b 447 15 740 161 635 15 b 153 356 260 15 153 161 l 153 972 l 111 972 z m 132 993 b 111 972 121 993 111 983 l 111 940 l 153 940 l 153 972 b 132 993 153 983 143 993 z m 761 993 b 740 972 750 993 740 983 l 740 940 l 782 940 l 782 972 b 761 993 782 983 772 993 z m 740 356 b 1076 -22 740 140 864 -22 b 1411 356 1288 -22 1411 140 l 1411 972 l 1369 972 l 1369 356 b 1076 15 1369 161 1264 15 b 782 356 889 15 782 161 l 782 972 l 740 972 z m 1390 993 b 1369 972 1379 993 1369 983 l 1369 940 l 1411 940 l 1411 972 b 1390 993 1411 983 1401 993 z "},"X":{"ha":976,"x_min":0,"x_max":0,"o":"m 111 189 l 111 0 l 153 0 l 153 189 b 489 529 153 383 301 529 b 824 189 676 529 824 383 l 824 0 l 865 0 l 865 189 b 489 567 865 404 700 567 b 111 189 276 567 111 404 z m 489 529 b 865 907 700 529 865 692 l 865 972 l 824 972 l 824 907 b 489 567 824 713 676 567 b 153 907 301 567 153 713 l 153 972 l 111 972 l 111 907 b 489 529 111 692 276 529 z m 132 -21 b 153 0 143 -21 153 -11 l 153 32 l 111 32 l 111 0 b 132 -21 111 -11 121 -21 z m 844 -21 b 865 0 856 -21 865 -11 l 865 32 l 824 32 l 824 0 b 844 -21 824 -11 833 -21 z m 132 993 b 111 972 121 993 111 983 l 111 940 l 153 940 l 153 972 b 132 993 153 983 143 993 z m 844 993 b 824 972 833 993 824 983 l 824 940 l 865 940 l 865 972 b 844 993 865 983 856 993 z "},"Y":{"ha":976,"x_min":0,"x_max":0,"o":"m 489 238 b 865 615 700 238 865 400 l 865 972 l 824 972 l 824 615 b 489 275 824 421 676 275 b 153 615 301 275 153 421 l 153 972 l 111 972 l 111 615 b 489 238 111 400 276 238 z m 488 -21 b 508 0 499 -21 508 -11 l 508 32 l 467 32 l 467 0 b 488 -21 467 -11 476 -21 z m 467 0 l 508 0 l 508 260 l 467 260 z m 132 993 b 111 972 121 993 111 983 l 111 940 l 153 940 l 153 972 b 132 993 153 983 143 993 z m 844 993 b 824 972 833 993 824 983 l 824 940 l 865 940 l 865 972 b 844 993 865 983 856 993 z "},"Z":{"ha":860,"x_min":0,"x_max":0,"o":"m 121 0 l 747 933 b 722 972 757 949 753 972 l 96 39 b 121 0 86 24 90 0 z m 121 0 l 739 0 l 739 38 l 121 38 z m 724 0 l 756 0 b 776 19 767 0 776 8 b 756 38 776 29 767 38 l 724 38 z m 136 935 l 136 972 l 104 972 b 83 954 93 972 83 964 b 104 935 83 943 93 935 z m 121 935 l 722 935 l 722 972 l 121 972 z "},"a":{"ha":786,"x_min":0,"x_max":0,"o":"m 633 418 l 633 0 l 675 0 l 675 418 b 393 717 675 589 554 717 b 132 544 275 717 169 651 b 140 515 126 531 131 519 b 169 526 151 511 165 514 b 393 679 204 621 292 679 b 633 418 531 679 633 564 z m 393 -22 b 675 200 554 -22 675 74 l 675 226 l 633 226 l 633 200 b 393 15 633 99 531 15 b 153 200 256 15 153 99 l 153 226 l 111 226 l 111 200 b 393 -22 111 74 232 -22 z m 111 226 l 111 200 l 153 200 l 153 226 b 393 410 153 328 256 410 b 633 226 531 410 633 328 l 633 200 l 675 200 l 675 226 b 393 447 675 353 554 447 b 111 226 232 447 111 353 z m 654 -21 b 675 0 665 -21 675 -11 l 675 32 l 633 32 l 633 0 b 654 -21 633 -11 643 -21 z "},"b":{"ha":757,"x_min":0,"x_max":0,"o":"m 111 310 l 153 310 l 153 419 b 393 679 153 571 251 679 b 632 421 528 679 632 576 l 632 310 l 674 310 l 674 421 b 393 717 674 596 560 717 b 111 419 222 717 111 588 z m 393 -22 b 674 274 560 -22 674 99 l 674 371 l 632 371 l 632 274 b 393 15 632 118 528 15 b 153 275 251 15 153 124 l 153 371 l 111 371 l 111 275 b 393 -22 111 107 222 -22 z m 111 371 l 153 371 l 153 972 l 111 972 z m 132 993 b 111 972 121 993 111 983 l 111 940 l 153 940 l 153 972 b 132 993 153 983 143 993 z "},"c":{"ha":768,"x_min":0,"x_max":0,"o":"m 111 422 l 111 276 b 393 -22 111 106 232 -22 b 654 150 511 -22 617 43 b 646 179 660 164 656 175 b 617 168 635 183 621 181 b 393 15 582 74 494 15 b 153 276 256 15 153 131 l 153 422 b 393 683 153 568 256 683 b 617 531 494 683 582 625 b 646 519 621 518 635 515 b 654 549 656 524 660 535 b 393 721 617 656 511 721 b 111 422 232 721 111 593 z "},"d":{"ha":757,"x_min":0,"x_max":0,"o":"m 646 310 l 646 419 b 364 717 646 588 535 717 b 83 421 197 717 83 596 l 83 310 l 125 310 l 125 421 b 364 679 125 576 229 679 b 604 419 506 679 604 571 l 604 310 z m 364 -22 b 646 275 535 -22 646 107 l 646 371 l 604 371 l 604 275 b 364 15 604 124 506 15 b 125 274 229 15 125 118 l 125 371 l 83 371 l 83 274 b 364 -22 83 99 197 -22 z m 646 371 l 646 972 l 604 972 l 604 371 z m 625 993 b 604 972 614 993 604 983 l 604 940 l 646 940 l 646 972 b 625 993 646 983 636 993 z "},"e":{"ha":731,"x_min":0,"x_max":0,"o":"m 365 -22 b 626 150 483 -22 589 43 b 618 179 632 164 628 175 b 589 168 607 183 593 181 b 365 15 554 74 467 15 b 125 276 228 15 125 131 l 125 329 l 606 329 b 647 367 626 329 647 343 l 647 422 b 365 717 647 593 526 717 b 83 422 204 717 83 593 l 83 276 b 365 -22 83 106 204 -22 z m 125 367 l 125 422 b 365 679 125 568 228 679 b 606 422 503 679 606 568 l 606 367 z "},"f":{"ha":513,"x_min":0,"x_max":0,"o":"m 111 546 l 153 546 l 153 699 b 392 957 153 854 257 957 l 392 994 b 111 699 225 994 111 874 z m 132 -21 b 153 0 143 -21 153 -11 l 153 32 l 111 32 l 111 0 b 132 -21 111 -11 121 -21 z m 111 0 l 153 0 l 153 694 l 111 694 z m 111 657 l 354 657 l 354 694 l 111 694 z m 340 657 l 372 657 b 393 675 383 657 393 665 b 372 694 393 686 383 694 l 340 694 z m 390 957 l 422 957 b 443 975 433 957 443 965 b 422 994 443 986 433 994 l 390 994 z "},"g":{"ha":743,"x_min":0,"x_max":0,"o":"m 83 310 l 125 310 l 125 419 b 365 679 125 571 224 679 b 604 421 500 679 604 576 l 604 310 l 646 310 l 646 421 b 365 717 646 596 532 717 b 83 419 194 717 83 588 z m 365 -22 b 646 274 532 -22 646 99 l 646 371 l 604 371 l 604 274 b 365 15 604 118 500 15 b 125 275 224 15 125 124 l 125 371 l 83 371 l 83 275 b 365 -22 83 107 194 -22 z m 365 -300 b 646 -4 532 -300 646 -179 l 646 294 l 604 294 l 604 -4 b 365 -262 604 -160 500 -262 z m 317 -281 b 338 -300 317 -292 326 -300 l 369 -300 l 369 -262 l 338 -262 b 317 -281 326 -262 317 -271 z "},"h":{"ha":785,"x_min":0,"x_max":0,"o":"m 111 0 l 153 0 l 153 419 b 393 679 153 571 251 679 b 632 421 528 679 632 576 l 632 0 l 674 0 l 674 421 b 393 717 674 596 560 717 b 111 419 222 717 111 588 z m 132 -21 b 153 0 143 -21 153 -11 l 153 32 l 111 32 l 111 0 b 132 -21 111 -11 121 -21 z m 653 -21 b 674 0 664 -21 674 -11 l 674 32 l 632 32 l 632 0 b 653 -21 632 -11 642 -21 z m 111 0 l 153 0 l 153 972 l 111 972 z m 132 -21 b 153 0 143 -21 153 -11 l 153 32 l 111 32 l 111 0 b 132 -21 111 -11 121 -21 z m 132 993 b 111 972 121 993 111 983 l 111 940 l 153 940 l 153 972 b 132 993 153 983 143 993 z "},"i":{"ha":265,"x_min":0,"x_max":0,"o":"m 111 0 l 153 0 l 153 694 l 111 694 z m 132 -21 b 153 0 143 -21 153 -11 l 153 32 l 111 32 l 111 0 b 132 -21 111 -11 121 -21 z m 132 715 b 111 694 121 715 111 706 l 111 663 l 153 663 l 153 694 b 132 715 153 706 143 715 z m 132 844 b 163 874 149 844 163 857 b 132 904 163 890 149 904 b 103 874 115 904 103 890 b 132 844 103 857 115 844 z "},"j":{"ha":464,"x_min":0,"x_max":0,"o":"m 63 -300 b 343 -4 229 -300 343 -179 l 343 149 l 301 149 l 301 -4 b 63 -262 301 -160 197 -262 z m 67 -300 l 67 -262 l 35 -262 b 14 -281 24 -262 14 -271 b 35 -300 14 -292 24 -300 z m 301 0 l 343 0 l 343 694 l 301 694 z m 322 -21 b 343 0 333 -21 343 -11 l 343 32 l 301 32 l 301 0 b 322 -21 301 -11 311 -21 z m 322 715 b 301 694 311 715 301 706 l 301 663 l 343 663 l 343 694 b 322 715 343 706 333 715 z m 322 844 b 353 874 339 844 353 857 b 322 904 353 890 339 904 b 293 874 306 904 293 890 b 322 844 293 857 306 844 z "},"k":{"ha":785,"x_min":0,"x_max":0,"o":"m 365 399 b 646 694 532 399 646 519 l 604 693 b 365 435 604 538 500 435 z m 111 0 l 153 0 l 153 972 l 111 972 z m 132 -21 b 153 0 143 -21 153 -11 l 153 32 l 111 32 l 111 0 b 132 -21 111 -11 121 -21 z m 132 993 b 111 972 121 993 111 983 l 111 940 l 153 940 l 153 972 b 132 993 153 983 143 993 z m 111 0 l 153 0 l 153 139 b 393 399 153 290 251 399 b 632 140 528 399 632 296 l 632 0 l 674 0 l 674 140 b 393 436 674 315 560 436 b 111 139 222 436 111 307 z m 625 715 b 604 694 614 715 604 706 l 604 692 l 646 692 l 646 694 b 625 715 646 706 636 715 z m 653 -21 b 674 0 664 -21 674 -11 l 674 32 l 632 32 l 632 0 b 653 -21 632 -11 642 -21 z "},"l":{"ha":264,"x_min":0,"x_max":0,"o":"m 111 0 l 153 0 l 153 972 l 111 972 z m 132 -21 b 153 0 143 -21 153 -11 l 153 32 l 111 32 l 111 0 b 132 -21 111 -11 121 -21 z m 132 993 b 111 972 121 993 111 983 l 111 940 l 153 940 l 153 972 b 132 993 153 983 143 993 z "},"m":{"ha":1306,"x_min":0,"x_max":0,"o":"m 111 0 l 153 0 l 153 419 b 393 679 153 571 251 679 b 632 421 528 679 632 576 l 632 0 l 674 0 l 674 421 b 393 717 674 596 560 717 b 111 419 222 717 111 588 z m 132 -21 b 153 0 143 -21 153 -11 l 153 32 l 111 32 l 111 0 b 132 -21 111 -11 121 -21 z m 653 -21 b 674 0 664 -21 674 -11 l 674 32 l 632 32 l 632 0 b 653 -21 632 -11 642 -21 z m 632 0 l 674 0 l 674 419 b 914 679 674 571 772 679 b 1153 421 1049 679 1153 576 l 1153 0 l 1194 0 l 1194 421 b 914 717 1194 596 1081 717 b 632 419 743 717 632 588 z m 653 -21 b 674 0 664 -21 674 -11 l 674 32 l 632 32 l 632 0 b 653 -21 632 -11 642 -21 z m 1174 -21 b 1194 0 1185 -21 1194 -11 l 1194 32 l 1153 32 l 1153 0 b 1174 -21 1153 -11 1163 -21 z "},"n":{"ha":785,"x_min":0,"x_max":0,"o":"m 111 0 l 153 0 l 153 419 b 393 679 153 571 251 679 b 632 421 528 679 632 576 l 632 0 l 674 0 l 674 421 b 393 717 674 596 560 717 b 111 419 222 717 111 588 z m 132 -21 b 153 0 143 -21 153 -11 l 153 32 l 111 32 l 111 0 b 132 -21 111 -11 121 -21 z m 653 -21 b 674 0 664 -21 674 -11 l 674 32 l 632 32 l 632 0 b 653 -21 632 -11 642 -21 z "},"o":{"ha":729,"x_min":0,"x_max":0,"o":"m 83 310 l 125 310 l 125 419 b 365 679 125 571 224 679 b 604 421 500 679 604 576 l 604 310 l 646 310 l 646 421 b 365 717 646 596 532 717 b 83 419 194 717 83 588 z m 365 -22 b 646 274 532 -22 646 99 l 646 371 l 604 371 l 604 274 b 365 15 604 118 500 15 b 125 275 224 15 125 124 l 125 371 l 83 371 l 83 275 b 365 -22 83 107 194 -22 z "},"p":{"ha":757,"x_min":0,"x_max":0,"o":"m 111 385 l 111 275 b 393 -22 111 107 222 -22 b 674 274 560 -22 674 99 l 674 385 l 632 385 l 632 274 b 393 15 632 118 528 15 b 153 275 251 15 153 124 l 153 385 z m 393 717 b 111 419 222 717 111 588 l 111 324 l 153 324 l 153 419 b 393 679 153 571 251 679 b 632 421 528 679 632 576 l 632 324 l 674 324 l 674 421 b 393 717 674 596 560 717 z m 111 324 l 111 -278 l 153 -278 l 153 324 z m 132 -299 b 153 -278 143 -299 153 -289 l 153 -246 l 111 -246 l 111 -278 b 132 -299 111 -289 121 -299 z "},"q":{"ha":757,"x_min":0,"x_max":0,"o":"m 646 385 l 604 385 l 604 275 b 364 15 604 124 506 15 b 125 274 229 15 125 118 l 125 385 l 83 385 l 83 274 b 364 -22 83 99 197 -22 b 646 275 535 -22 646 107 z m 364 717 b 83 421 197 717 83 596 l 83 324 l 125 324 l 125 421 b 364 679 125 576 229 679 b 604 419 506 679 604 571 l 604 324 l 646 324 l 646 419 b 364 717 646 588 535 717 z m 646 324 l 604 324 l 604 -278 l 646 -278 z m 625 -299 b 646 -278 636 -299 646 -289 l 646 -246 l 604 -246 l 604 -278 b 625 -299 604 -289 614 -299 z "},"r":{"ha":713,"x_min":0,"x_max":0,"o":"m 111 418 l 111 0 l 153 0 l 153 418 b 393 679 153 564 256 679 b 617 526 494 679 582 621 b 646 515 621 514 635 511 b 654 544 656 519 660 531 b 393 717 617 651 511 717 b 111 418 232 717 111 589 z m 132 -21 b 153 0 143 -21 153 -11 l 153 32 l 111 32 l 111 0 b 132 -21 111 -11 121 -21 z "},"s":{"ha":719,"x_min":0,"x_max":0,"o":"m 139 -12 l 413 -12 b 636 201 540 -12 636 81 b 413 414 636 322 540 414 l 360 414 l 360 376 l 413 376 b 594 201 517 381 594 306 b 413 25 594 100 517 25 l 139 25 z m 171 -12 l 171 25 l 139 25 b 118 6 128 25 118 17 b 139 -12 118 -4 128 -12 z m 293 376 l 379 376 l 379 414 l 293 414 b 139 540 206 411 139 465 b 293 668 139 619 206 668 l 522 668 l 522 706 l 293 706 b 97 540 181 706 97 635 b 293 376 97 447 181 376 z m 494 668 l 526 668 b 547 688 538 668 547 676 b 526 706 547 697 538 706 l 494 706 z "},"t":{"ha":513,"x_min":0,"x_max":0,"o":"m 392 25 b 153 283 257 25 153 128 l 153 428 l 111 428 l 111 283 b 392 -12 111 108 225 -12 z m 390 -12 l 422 -12 b 443 7 433 -12 443 -4 b 422 25 443 17 433 25 l 390 25 z m 111 288 l 153 288 l 153 789 l 111 789 z m 129 657 l 354 657 l 354 694 l 129 694 z m 132 832 b 111 811 121 832 111 822 l 111 779 l 153 779 l 153 811 b 132 832 153 822 143 832 z m 340 657 l 372 657 b 393 676 383 657 393 665 b 372 694 393 686 383 694 l 340 694 z "},"u":{"ha":785,"x_min":0,"x_max":0,"o":"m 111 694 l 111 275 b 393 -22 111 107 222 -22 b 674 274 560 -22 674 99 l 674 694 l 632 694 l 632 274 b 393 15 632 118 528 15 b 153 275 251 15 153 124 l 153 694 z m 132 715 b 111 694 121 715 111 706 l 111 663 l 153 663 l 153 694 b 132 715 153 706 143 715 z m 653 715 b 632 694 642 715 632 706 l 632 663 l 674 663 l 674 694 b 653 715 674 706 664 715 z "},"v":{"ha":785,"x_min":0,"x_max":0,"o":"m 393 -21 b 674 317 503 -21 674 128 l 674 696 l 632 696 l 632 317 b 393 17 632 161 486 17 b 153 318 300 17 153 163 l 153 696 l 111 696 l 111 318 b 393 -21 111 129 283 -21 z m 132 717 b 111 696 121 717 111 707 l 111 664 l 153 664 l 153 696 b 132 717 153 707 143 717 z m 653 717 b 632 696 642 717 632 707 l 632 664 l 674 664 l 674 696 b 653 717 674 707 664 717 z "},"w":{"ha":1306,"x_min":0,"x_max":0,"o":"m 111 694 l 111 275 b 393 -22 111 107 222 -22 b 674 274 560 -22 674 99 l 674 694 l 632 694 l 632 274 b 393 15 632 118 528 15 b 153 275 251 15 153 124 l 153 694 z m 132 715 b 111 694 121 715 111 706 l 111 663 l 153 663 l 153 694 b 132 715 153 706 143 715 z m 653 715 b 632 694 642 715 632 706 l 632 663 l 674 663 l 674 694 b 653 715 674 706 664 715 z m 632 694 l 632 275 b 914 -22 632 107 743 -22 b 1194 274 1081 -22 1194 99 l 1194 694 l 1153 694 l 1153 274 b 914 15 1153 118 1049 15 b 674 275 772 15 674 124 l 674 694 z m 653 715 b 632 694 642 715 632 706 l 632 663 l 674 663 l 674 694 b 653 715 674 706 664 715 z m 1174 715 b 1153 694 1163 715 1153 706 l 1153 663 l 1194 663 l 1194 694 b 1174 715 1194 706 1185 715 z "},"x":{"ha":785,"x_min":0,"x_max":0,"o":"m 111 0 l 153 0 l 153 71 b 393 331 153 222 251 331 b 632 72 528 331 632 228 l 632 0 l 674 0 l 674 72 b 393 368 674 247 560 368 b 111 71 222 368 111 239 z m 393 331 b 674 626 560 331 674 451 l 674 694 l 632 694 l 632 626 b 393 368 632 471 528 368 b 153 628 251 368 153 476 l 153 694 l 111 694 l 111 628 b 393 331 111 460 222 331 z m 132 715 b 111 694 121 715 111 706 l 111 663 l 153 663 l 153 694 b 132 715 153 706 143 715 z m 653 715 b 632 694 642 715 632 706 l 632 663 l 674 663 l 674 694 b 653 715 674 706 664 715 z m 132 -21 b 153 0 143 -21 153 -11 l 153 32 l 111 32 l 111 0 b 132 -21 111 -11 121 -21 z m 653 -21 b 674 0 664 -21 674 -11 l 674 32 l 632 32 l 632 0 b 653 -21 632 -11 642 -21 z "},"y":{"ha":785,"x_min":0,"x_max":0,"o":"m 111 694 l 111 275 b 393 -22 111 107 222 -22 b 674 274 560 -22 674 99 l 674 694 l 632 694 l 632 274 b 393 15 632 118 528 15 b 153 275 251 15 153 124 l 153 694 z m 132 715 b 111 694 121 715 111 706 l 111 663 l 153 663 l 153 694 b 132 715 153 706 143 715 z m 653 715 b 632 694 642 715 632 706 l 632 663 l 674 663 l 674 694 b 653 715 674 706 664 715 z m 393 -300 b 674 -4 560 -300 674 -179 l 674 294 l 632 294 l 632 -4 b 393 -262 632 -160 528 -262 z m 344 -281 b 365 -300 344 -292 354 -300 l 397 -300 l 397 -262 l 365 -262 b 344 -281 354 -262 344 -271 z "},"z":{"ha":675,"x_min":0,"x_max":0,"o":"m 135 0 l 565 656 b 540 694 575 671 571 694 l 110 39 b 135 0 100 24 104 0 z m 135 0 l 554 0 l 554 38 l 135 38 z m 539 0 l 571 0 b 592 19 582 0 592 8 b 571 38 592 29 582 38 l 539 38 z m 136 657 l 136 694 l 104 694 b 83 676 93 694 83 686 b 104 657 83 665 93 657 z m 121 657 l 540 657 l 540 694 l 121 694 z "},".":{"ha":171,"x_min":0,"x_max":0,"o":"m 85 0 b 115 29 101 0 115 13 b 85 60 115 46 101 60 b 56 29 68 60 56 46 b 85 0 56 13 68 0 z "},",":{"ha":171,"x_min":0,"x_max":0,"o":"m 56 29 l 56 -14 b 115 29 92 -14 115 3 b 85 60 115 46 101 60 b 56 29 68 60 56 46 z "},":":{"ha":171,"x_min":0,"x_max":0,"o":"m 85 107 b 115 136 101 107 115 119 b 85 167 115 153 101 167 b 56 136 68 167 56 153 b 85 107 56 119 68 107 z m 85 515 b 115 544 101 515 115 528 b 85 575 115 561 101 575 b 56 544 68 575 56 561 b 85 515 56 528 68 515 z "},";":{"ha":171,"x_min":0,"x_max":0,"o":"m 56 136 l 56 93 b 115 136 92 93 115 110 b 85 167 115 153 101 167 b 56 136 68 167 56 153 z m 85 515 b 115 544 101 515 115 528 b 85 575 115 561 101 575 b 56 544 68 575 56 561 b 85 515 56 528 68 515 z "},"…":{"ha":171,"x_min":0,"x_max":0,"o":"m 85 0 b 115 29 101 0 115 13 b 85 60 115 46 101 60 b 56 29 68 60 56 46 b 85 0 56 13 68 0 z "},"!":{"ha":265,"x_min":0,"x_max":0,"o":"m 111 972 l 111 139 l 153 139 l 153 972 z m 132 993 b 111 972 121 993 111 983 l 111 940 l 153 940 l 153 972 b 132 993 153 983 143 993 z m 132 118 b 153 139 143 118 153 128 l 153 171 l 111 171 l 111 139 b 132 118 111 128 121 118 z m 132 72 b 103 43 115 72 103 60 b 132 13 103 26 115 13 b 163 43 149 13 163 26 b 132 72 163 60 149 72 z "},"¡":{"ha":265,"x_min":0,"x_max":0,"o":"m 111 -239 l 153 -239 l 153 594 l 111 594 z m 132 -260 b 153 -239 143 -260 153 -250 l 153 -207 l 111 -207 l 111 -239 b 132 -260 111 -250 121 -260 z m 132 615 b 111 594 121 615 111 606 l 111 563 l 153 563 l 153 594 b 132 615 153 606 143 615 z m 132 661 b 163 690 149 661 163 674 b 132 721 163 707 149 721 b 103 690 115 721 103 707 b 132 661 103 674 115 661 z "},"?":{"ha":744,"x_min":0,"x_max":0,"o":"m 372 163 b 393 183 385 163 393 171 l 393 283 b 633 729 393 464 633 506 b 369 972 633 872 525 972 b 114 800 256 972 150 901 b 122 771 108 788 111 775 b 151 782 135 765 147 769 b 369 935 185 872 275 935 b 592 729 500 935 592 850 b 351 283 592 535 351 478 l 351 183 b 372 163 351 171 358 163 z m 375 0 b 406 29 392 0 406 13 b 375 60 406 46 392 60 b 346 29 358 60 346 46 b 375 0 346 13 358 0 z "},"¿":{"ha":744,"x_min":0,"x_max":0,"o":"m 372 533 b 351 513 358 533 351 525 l 351 413 b 592 -33 351 218 592 161 b 369 -239 592 -154 500 -239 b 151 -86 275 -239 185 -176 b 122 -75 147 -74 135 -69 b 114 -104 111 -79 108 -92 b 369 -276 150 -206 256 -276 b 633 -33 525 -276 633 -176 b 393 413 633 190 393 232 l 393 513 b 372 533 393 525 385 533 z m 375 696 b 346 667 358 696 346 683 b 375 636 346 650 358 636 b 406 667 392 636 406 650 b 375 696 406 683 392 696 z "},"·":{"ha":171,"x_min":0,"x_max":0,"o":"m 85 353 b 115 382 101 353 115 365 b 85 413 115 399 101 413 b 56 382 68 413 56 399 b 85 353 56 365 68 353 z "},"•":{"ha":324,"x_min":0,"x_max":0,"o":"m 160 276 b 268 381 219 276 268 321 b 160 489 268 439 219 489 b 56 381 100 489 56 439 b 160 276 56 321 100 276 z "},"*":{"ha":365,"x_min":0,"x_max":0,"o":"m 300 914 b 310 936 307 921 310 929 b 293 953 310 946 303 953 b 268 940 285 953 276 949 l 221 893 b 204 900 211 883 204 888 l 204 963 b 183 990 204 978 194 990 b 163 963 172 990 163 978 l 163 899 b 156 888 163 892 160 888 b 146 892 151 888 149 889 l 97 940 b 72 953 89 949 81 953 b 56 936 63 953 56 946 b 65 914 56 929 58 921 l 138 836 b 142 826 140 833 142 831 b 138 817 142 822 140 819 l 65 739 b 57 719 60 732 57 726 b 75 701 57 710 64 701 b 97 713 82 701 90 706 l 146 760 b 163 753 156 769 163 765 l 163 690 b 183 663 163 675 172 663 b 204 690 194 663 204 675 l 204 753 b 211 765 204 761 207 765 b 221 760 214 765 217 764 l 268 713 b 290 701 275 706 283 701 b 308 719 301 701 308 710 b 300 739 308 726 306 733 l 228 817 b 224 826 225 819 224 822 b 228 836 224 831 225 833 z "},"#":{"ha":958,"x_min":0,"x_max":0,"o":"m 314 315 b 300 328 307 315 300 321 l 300 331 l 328 638 b 342 650 328 644 335 650 l 651 650 b 667 635 661 650 667 644 l 667 633 l 638 326 b 624 314 638 319 631 314 z m 233 271 b 247 258 240 271 247 265 l 247 256 l 226 11 b 249 -6 225 0 238 -6 b 272 11 261 -6 272 0 l 292 258 b 306 271 292 265 299 271 l 617 269 b 631 257 624 269 631 264 l 631 254 l 608 11 b 629 -6 607 0 618 -6 b 653 11 642 -6 651 0 l 675 257 b 689 269 675 264 682 269 l 846 269 b 861 292 856 269 861 276 b 846 313 861 303 857 313 l 697 314 b 683 326 690 314 683 319 l 683 329 l 711 638 b 725 650 711 644 718 650 l 888 650 b 903 672 897 650 903 657 b 888 694 903 688 897 694 l 731 694 b 717 707 724 694 717 700 l 717 710 l 739 968 b 718 986 740 979 731 986 b 694 968 706 986 696 979 l 672 707 b 658 694 671 699 667 694 l 350 694 b 335 708 340 694 335 701 l 335 710 l 358 968 b 339 986 360 979 351 986 b 314 968 326 986 315 979 l 290 707 b 276 694 290 700 283 694 l 115 694 b 96 672 104 694 96 683 b 115 650 96 661 104 650 l 268 650 b 283 635 278 650 283 644 l 283 633 l 254 328 b 240 315 254 321 247 315 l 75 314 b 56 293 64 314 56 304 b 75 271 56 282 64 271 z "},"/":{"ha":475,"x_min":0,"x_max":0,"o":"m 432 969 b 413 994 436 982 425 994 b 388 969 401 994 393 986 l 43 -199 b 63 -222 39 -211 50 -222 b 90 -193 75 -222 83 -212 z "},"\\":{"ha":475,"x_min":0,"x_max":0,"o":"m 385 -193 b 413 -222 392 -212 400 -222 b 432 -199 425 -222 436 -211 l 88 969 b 63 994 82 986 74 994 b 43 969 50 994 39 982 z "},"-":{"ha":599,"x_min":0,"x_max":0,"o":"m 90 308 l 508 308 b 529 328 519 308 529 315 b 508 346 529 339 519 346 l 90 346 b 69 328 79 346 69 339 b 90 308 69 315 79 308 z "},"–":{"ha":738,"x_min":0,"x_max":0,"o":"m 90 308 l 647 308 b 668 328 658 308 668 315 b 647 346 668 339 658 346 l 90 346 b 69 328 79 346 69 339 b 90 308 69 315 79 308 z "},"—":{"ha":863,"x_min":0,"x_max":0,"o":"m 90 308 l 772 308 b 793 328 783 308 793 315 b 772 346 793 339 783 346 l 90 346 b 69 328 79 346 69 339 b 90 308 69 315 79 308 z "},"_":{"ha":599,"x_min":0,"x_max":0,"o":"m 90 -107 l 508 -107 b 529 -87 519 -107 529 -100 b 508 -69 529 -76 519 -69 l 90 -69 b 69 -87 79 -69 69 -76 b 90 -107 69 -100 79 -107 z "},"(":{"ha":281,"x_min":0,"x_max":0,"o":"m 194 -147 b 208 -125 208 -147 213 -136 b 111 474 139 75 111 275 b 208 1000 111 650 139 825 b 194 1022 214 1011 208 1022 b 167 1000 182 1022 171 1011 b 69 474 97 824 69 647 b 167 -125 69 272 97 74 b 194 -147 171 -136 182 -147 z "},")":{"ha":281,"x_min":0,"x_max":0,"o":"m 86 -147 b 114 -125 99 -147 110 -136 b 211 474 183 74 211 272 b 114 1000 211 647 183 824 b 86 1022 110 1011 99 1022 b 72 1000 72 1022 67 1011 b 169 474 142 825 169 650 b 72 -125 169 275 142 75 b 86 -147 68 -136 72 -147 z "},"{":{"ha":263,"x_min":0,"x_max":0,"o":"m 176 -142 b 190 -119 190 -142 197 -131 b 135 117 135 -31 135 29 b 190 447 135 218 190 347 b 135 776 190 546 135 675 b 190 1013 135 864 135 925 b 176 1035 197 1024 190 1035 b 149 1013 164 1035 156 1022 b 93 776 93 925 93 863 b 149 467 93 681 142 563 l 86 467 b 69 449 76 467 69 460 b 86 429 69 438 76 429 l 149 429 b 93 117 142 332 93 214 b 149 -119 93 31 93 -31 b 176 -142 156 -129 164 -142 z "},"}":{"ha":263,"x_min":0,"x_max":0,"o":"m 86 -142 b 114 -119 99 -142 107 -129 b 169 117 169 -31 169 31 b 114 429 169 214 121 332 l 176 429 b 193 449 186 429 193 438 b 176 467 193 460 186 467 l 114 467 b 169 776 121 563 169 681 b 114 1013 169 863 169 925 b 86 1035 107 1022 99 1035 b 72 1013 72 1035 65 1024 b 128 776 128 925 128 864 b 72 447 128 675 72 546 b 128 117 72 347 128 218 b 72 -119 128 29 128 -31 b 86 -142 65 -131 72 -142 z "},"[":{"ha":281,"x_min":0,"x_max":0,"o":"m 194 -147 l 301 -147 b 318 -128 311 -147 318 -139 b 301 -110 318 -117 311 -110 l 203 -110 b 111 474 138 85 111 281 b 203 985 111 644 138 815 l 301 985 b 318 1004 311 985 318 993 b 301 1022 318 1015 311 1022 l 194 1022 b 167 1000 182 1022 171 1011 b 69 474 97 824 69 647 b 167 -125 69 272 97 74 b 194 -147 171 -136 182 -147 z "},"]":{"ha":281,"x_min":0,"x_max":0,"o":"m 193 -147 b 221 -125 206 -147 217 -136 b 318 474 290 74 318 272 b 221 1000 318 647 290 824 b 193 1022 217 1011 206 1022 l 86 1022 b 69 1004 76 1022 69 1015 b 86 985 69 993 76 985 l 185 985 b 276 474 250 815 276 644 b 185 -110 276 281 250 85 l 86 -110 b 69 -128 76 -110 69 -117 b 86 -147 69 -139 76 -147 z "},"‚":{"ha":171,"x_min":0,"x_max":0,"o":"m 56 29 l 56 -14 b 115 29 92 -14 115 3 b 85 60 115 46 101 60 b 56 29 68 60 56 46 z "},"„":{"ha":296,"x_min":0,"x_max":0,"o":"m 181 29 l 181 -14 b 240 29 217 -14 240 3 b 210 60 240 46 226 60 b 181 29 193 60 181 46 z m 56 29 l 56 -14 b 115 29 92 -14 115 3 b 85 60 115 46 101 60 b 56 29 68 60 56 46 z "},"“":{"ha":296,"x_min":0,"x_max":0,"o":"m 115 949 l 115 992 b 56 949 79 992 56 975 b 86 918 56 932 69 918 b 115 949 103 918 115 932 z m 240 949 l 240 992 b 181 949 204 992 181 975 b 211 918 181 932 194 918 b 240 949 228 918 240 932 z "},"”":{"ha":296,"x_min":0,"x_max":0,"o":"m 181 961 l 181 918 b 240 961 217 918 240 935 b 210 992 240 978 226 992 b 181 961 193 992 181 978 z m 56 961 l 56 918 b 115 961 92 918 115 935 b 85 992 115 978 101 992 b 56 961 68 992 56 978 z "},"‘":{"ha":171,"x_min":0,"x_max":0,"o":"m 115 949 l 115 992 b 56 949 79 992 56 975 b 86 918 56 932 69 918 b 115 949 103 918 115 932 z "},"’":{"ha":171,"x_min":0,"x_max":0,"o":"m 56 961 l 56 918 b 115 961 92 918 115 935 b 85 992 115 978 101 992 b 56 961 68 992 56 978 z "},"«":{"ha":517,"x_min":0,"x_max":0,"o":"m 294 136 l 121 408 l 294 681 b 281 707 303 694 293 704 b 249 689 265 711 257 703 l 69 408 l 249 128 b 281 110 257 114 265 106 b 294 136 293 113 303 122 z m 444 136 l 271 408 l 444 681 b 431 707 453 694 443 704 b 399 689 415 711 407 703 l 219 408 l 399 128 b 431 110 407 114 415 106 b 444 136 443 113 453 122 z "},"»":{"ha":517,"x_min":0,"x_max":0,"o":"m 222 681 l 396 408 l 222 136 b 236 110 214 122 224 113 b 268 128 251 106 260 114 l 447 408 l 268 689 b 236 707 260 703 251 711 b 222 681 224 704 214 694 z m 72 681 l 246 408 l 72 136 b 86 110 64 122 74 113 b 118 128 101 106 110 114 l 297 408 l 118 689 b 86 707 110 703 101 711 b 72 681 74 704 64 694 z "},"‹":{"ha":367,"x_min":0,"x_max":0,"o":"m 294 136 l 121 408 l 294 681 b 281 707 303 694 293 704 b 249 689 265 711 257 703 l 69 408 l 249 128 b 281 110 257 114 265 106 b 294 136 293 113 303 122 z "},"›":{"ha":367,"x_min":0,"x_max":0,"o":"m 72 681 l 246 408 l 72 136 b 86 110 64 122 74 113 b 118 128 101 106 110 114 l 297 408 l 118 689 b 86 707 110 703 101 711 b 72 681 74 704 64 694 z "},"\"":{"ha":408,"x_min":0,"x_max":0,"o":"m 111 681 l 153 681 l 153 972 l 111 972 z m 132 660 b 153 681 143 660 153 669 l 153 713 l 111 713 l 111 681 b 132 660 111 669 121 660 z m 132 993 b 111 972 121 993 111 983 l 111 940 l 153 940 l 153 972 b 132 993 153 983 143 993 z m 256 688 l 297 688 l 297 979 l 256 979 z m 276 667 b 297 688 288 667 297 676 l 297 719 l 256 719 l 256 688 b 276 667 256 676 265 667 z m 276 1000 b 256 979 265 1000 256 990 l 256 947 l 297 947 l 297 979 b 276 1000 297 990 288 1000 z "},"'":{"ha":264,"x_min":0,"x_max":0,"o":"m 111 681 l 153 681 l 153 972 l 111 972 z m 132 660 b 153 681 143 660 153 669 l 153 713 l 111 713 l 111 681 b 132 660 111 669 121 660 z m 132 993 b 111 972 121 993 111 983 l 111 940 l 153 940 l 153 972 b 132 993 153 983 143 993 z "},"฿":{"ha":919,"x_min":0,"x_max":0,"o":"m 600 0 l 636 0 b 850 292 758 0 850 125 b 636 583 850 458 758 583 l 600 583 l 600 546 l 636 546 b 808 292 735 546 808 438 b 636 38 808 146 735 38 l 600 38 z m 228 0 l 261 0 l 261 38 l 228 38 b 153 117 192 38 153 78 l 153 144 l 111 144 l 111 118 b 228 0 111 53 164 0 z m 228 0 l 636 0 l 636 38 l 228 38 z m 111 118 l 153 118 l 153 854 l 111 854 z m 136 546 l 636 546 l 636 583 l 136 583 z m 111 854 l 111 828 l 153 828 l 153 856 b 228 935 153 894 192 935 l 261 935 l 261 972 l 228 972 b 111 854 164 972 111 919 z m 228 935 l 581 935 l 581 972 l 228 972 z m 558 546 l 594 546 b 781 760 717 546 781 638 b 594 972 781 881 717 972 l 558 972 l 558 935 l 594 935 b 739 760 693 935 739 860 b 594 583 739 658 693 583 l 558 583 z m 431 -76 l 472 -76 l 472 1063 l 431 1063 z m 451 -97 b 472 -76 463 -97 472 -87 l 472 -44 l 431 -44 l 431 -76 b 451 -97 431 -87 440 -97 z m 451 1083 b 431 1063 440 1083 431 1074 l 431 1031 l 472 1031 l 472 1063 b 451 1083 472 1074 463 1083 z "},"@":{"ha":894,"x_min":0,"x_max":0,"o":"m 440 204 b 285 381 336 204 285 268 l 285 494 b 440 675 285 610 336 675 b 610 494 546 675 610 607 l 610 381 b 440 204 610 271 546 204 z m 56 297 b 449 -68 56 63 211 -68 l 778 -68 b 806 -46 796 -68 806 -58 b 778 -24 806 -33 796 -24 l 449 -24 b 97 297 233 -24 97 86 l 97 581 b 440 944 97 800 235 944 b 797 582 646 944 797 796 l 797 389 b 779 258 797 335 792 292 b 729 207 767 224 750 207 b 651 381 683 207 651 279 l 651 494 b 440 717 651 624 564 717 b 243 494 318 717 243 626 l 243 379 b 440 163 243 251 318 163 b 625 269 519 163 590 204 b 726 165 636 208 678 165 b 839 389 793 165 839 257 l 839 582 b 440 986 839 813 679 986 b 56 581 210 986 56 824 z "},"&":{"ha":899,"x_min":0,"x_max":0,"o":"m 407 642 b 271 810 346 642 271 733 b 407 944 271 886 344 944 b 544 810 475 944 544 881 b 407 642 544 735 472 642 z m 56 257 b 406 -14 56 79 183 -14 b 740 128 578 -14 679 32 l 799 8 b 826 -11 806 -4 815 -11 b 843 6 838 -11 843 -6 b 839 22 843 10 842 15 l 765 174 b 807 413 797 244 807 317 b 786 440 807 429 797 440 b 765 411 775 440 765 429 b 400 28 765 160 663 28 b 97 256 207 28 97 104 b 242 489 97 357 164 438 b 390 574 281 514 331 542 l 458 610 b 586 811 531 653 586 732 b 407 986 586 908 508 986 b 229 811 310 986 229 907 b 360 608 229 726 286 636 l 313 581 b 93 397 206 518 143 476 b 56 257 68 357 56 311 z "},"¶":{"ha":728,"x_min":0,"x_max":0,"o":"m 535 -68 b 556 -94 535 -85 544 -94 b 576 -68 567 -94 576 -85 l 576 699 b 581 836 576 753 578 799 l 582 899 b 526 988 582 960 569 981 b 415 993 504 992 467 993 l 338 993 b 56 699 167 993 56 864 b 338 408 56 529 172 408 l 535 407 z m 631 -67 b 651 -94 631 -83 640 -94 b 672 -67 663 -94 672 -83 l 672 971 b 651 999 672 989 664 999 b 631 971 639 999 631 989 z "},"§":{"ha":646,"x_min":0,"x_max":0,"o":"m 338 260 b 108 449 192 260 108 344 b 308 621 108 550 193 621 b 538 432 465 621 538 536 b 338 260 538 331 453 260 z m 56 897 b 297 660 56 800 147 692 b 65 447 160 660 65 571 b 307 210 65 332 146 243 b 547 -14 467 175 547 81 b 347 -189 547 -115 460 -189 b 125 -46 231 -189 138 -136 b 103 -21 124 -31 114 -21 b 82 -47 92 -21 82 -32 l 82 -50 b 347 -232 99 -162 208 -232 b 590 -17 486 -232 590 -142 b 399 226 590 81 514 196 b 581 433 511 244 581 332 b 340 688 581 551 497 650 b 99 894 186 725 99 801 b 299 1069 99 996 186 1069 b 521 925 415 1069 508 1018 b 543 901 522 913 532 901 b 564 928 554 901 564 913 l 564 931 b 299 1113 547 1043 438 1113 b 56 897 160 1113 56 1022 z "},"©":{"ha":1226,"x_min":0,"x_max":0,"o":"m 608 132 b 829 338 732 132 822 215 b 810 356 831 349 821 356 b 788 342 799 356 789 349 b 608 174 781 235 713 174 b 428 361 497 174 428 244 l 428 482 b 608 674 428 600 497 674 b 788 506 714 674 781 613 b 810 490 789 496 799 490 b 829 508 821 490 831 497 b 608 715 824 631 732 715 b 386 482 479 715 386 619 l 386 361 b 608 132 386 226 476 132 z m 56 438 b 336 -64 56 232 164 43 b 615 -143 421 -117 514 -143 b 1096 150 815 -143 996 -28 b 1171 438 1146 239 1171 335 b 894 918 1171 638 1064 818 b 615 993 810 968 717 993 b 131 715 411 993 231 886 b 56 438 81 631 56 538 z m 103 436 b 358 875 103 619 201 785 b 614 943 436 921 521 943 b 1053 690 797 943 963 846 b 1121 436 1099 613 1121 528 b 868 -24 1121 249 1024 75 b 614 -96 790 -72 706 -96 b 172 174 429 -96 264 10 b 103 436 126 256 103 343 z "},"®":{"ha":736,"x_min":0,"x_max":0,"o":"m 368 529 b 97 811 210 529 97 650 b 368 1082 97 969 210 1082 b 639 811 526 1082 639 969 b 368 529 639 650 526 529 z m 56 813 b 369 488 56 624 193 488 b 681 813 551 488 681 629 b 369 1124 681 992 544 1124 b 56 813 193 1124 56 999 z m 226 614 b 247 600 226 604 236 600 b 268 614 261 600 268 604 l 268 753 b 279 764 268 758 272 764 b 358 765 318 764 344 764 b 386 765 371 765 381 765 l 418 765 b 483 668 450 765 483 724 l 483 614 b 506 604 483 607 490 604 b 525 614 518 604 525 607 l 525 669 b 494 756 525 715 515 743 b 463 774 474 767 464 772 b 507 807 463 779 489 785 b 524 867 518 819 524 839 b 386 978 524 949 486 978 l 264 978 b 226 942 239 978 226 965 z m 268 899 b 304 936 268 928 276 936 l 389 936 b 482 867 461 936 482 921 b 403 807 482 815 458 807 l 279 806 b 268 817 274 806 268 811 z "},"™":{"ha":1481,"x_min":0,"x_max":0,"o":"m 307 626 b 328 640 317 626 328 633 l 328 1057 b 346 1076 328 1068 335 1076 l 547 1076 b 556 1096 553 1076 556 1083 b 547 1118 556 1111 553 1118 l 65 1118 b 56 1099 58 1118 56 1111 b 65 1076 56 1088 60 1076 l 267 1076 b 286 1057 279 1076 286 1068 l 286 640 b 307 626 286 633 297 626 z m 567 642 b 588 619 567 629 576 619 b 608 642 599 619 608 629 l 608 928 b 788 1090 608 1043 664 1090 b 976 900 910 1090 976 1021 l 976 642 b 997 628 976 632 983 628 b 1018 642 1008 628 1018 632 l 1018 900 b 1201 1090 1018 1021 1081 1090 b 1383 928 1328 1090 1383 1043 l 1383 642 b 1404 626 1383 632 1393 626 b 1425 642 1415 626 1425 632 l 1425 928 b 1201 1132 1425 1060 1344 1132 b 1007 1025 1117 1132 1050 1096 b 996 1017 1004 1019 1000 1017 b 986 1025 992 1017 989 1019 b 788 1132 942 1096 872 1132 b 567 928 644 1132 567 1060 z "},"°":{"ha":383,"x_min":0,"x_max":0,"o":"m 192 751 b 97 850 142 751 97 794 b 192 944 97 906 140 944 b 286 850 243 944 286 904 b 192 751 286 794 243 751 z m 56 851 b 192 710 56 774 118 710 b 328 851 268 710 328 774 b 192 986 328 925 268 986 b 56 851 118 986 56 925 z "},"|":{"ha":264,"x_min":0,"x_max":0,"o":"m 111 -167 l 153 -167 l 153 972 l 111 972 z m 132 -187 b 153 -167 143 -187 153 -178 l 153 -135 l 111 -135 l 111 -167 b 132 -187 111 -178 121 -187 z m 132 993 b 111 972 121 993 111 983 l 111 940 l 153 940 l 153 972 b 132 993 153 983 143 993 z "},"¦":{"ha":188,"x_min":0,"x_max":0,"o":"m 69 589 b 94 561 69 572 82 561 b 118 589 107 561 118 572 l 118 967 b 94 994 118 983 107 994 b 69 967 82 994 69 983 z m 69 -178 b 94 -206 69 -194 82 -206 b 118 -178 107 -206 118 -194 l 118 194 b 94 222 118 213 107 222 b 69 194 82 222 69 213 z "},"†":{"ha":683,"x_min":0,"x_max":0,"o":"m 318 917 l 139 917 b 111 893 122 917 111 906 b 139 868 111 881 122 868 l 318 868 l 318 589 b 343 561 318 572 331 561 b 367 589 356 561 367 572 l 367 868 l 544 868 b 572 892 561 868 572 879 b 544 917 572 904 561 917 l 367 917 l 367 1022 b 343 1050 367 1039 356 1050 b 318 1022 331 1050 318 1039 z "},"‡":{"ha":683,"x_min":0,"x_max":0,"o":"m 318 913 l 139 913 b 111 889 122 913 111 901 b 139 864 111 876 122 864 l 318 864 l 318 767 l 139 767 b 111 743 122 767 111 756 b 139 718 111 731 122 718 l 318 718 l 318 589 b 343 561 318 572 331 561 b 367 589 356 561 367 572 l 367 718 l 544 718 b 572 742 561 718 572 729 b 544 767 572 754 561 767 l 367 767 l 367 864 l 544 864 b 572 888 561 864 572 875 b 544 913 572 900 561 913 l 367 913 l 367 1022 b 343 1050 367 1039 356 1050 b 318 1022 331 1050 318 1039 z "},"¢":{"ha":768,"x_min":0,"x_max":0,"o":"m 111 547 l 111 454 l 153 454 l 153 547 b 393 808 153 693 256 808 b 617 656 494 808 582 750 b 646 644 621 643 635 640 b 654 674 656 649 660 660 b 393 846 617 781 511 846 b 111 547 232 846 111 718 z m 393 103 b 654 275 511 103 617 168 b 646 304 660 289 656 300 b 617 293 635 308 621 306 b 393 140 582 199 494 140 b 153 401 256 140 153 256 l 153 494 l 111 494 l 111 401 b 393 103 111 231 232 103 z m 375 35 l 417 35 l 417 924 l 375 924 z m 396 0 b 417 21 407 0 417 10 l 417 53 l 375 53 l 375 21 b 396 0 375 10 385 0 z m 396 944 b 375 924 385 944 375 935 l 375 892 l 417 892 l 417 924 b 396 944 417 935 407 944 z "},"¤":{"ha":689,"x_min":0,"x_max":0,"o":"m 331 174 b 83 432 190 174 83 278 b 331 678 83 576 185 678 b 576 432 475 678 576 576 b 331 174 576 278 469 174 z m 42 433 b 126 215 42 347 69 275 l 54 142 b 44 121 47 135 44 128 b 67 99 44 108 54 99 b 88 110 74 99 81 103 l 160 188 b 332 132 211 150 268 132 b 524 206 404 132 472 160 l 599 128 b 618 118 606 121 611 118 b 640 139 631 118 640 128 b 631 160 640 146 638 153 l 554 238 b 618 433 597 292 618 357 b 560 610 618 501 599 561 l 638 690 b 647 711 644 697 647 704 b 625 732 647 722 638 732 b 606 722 618 732 613 729 l 531 644 b 332 719 471 694 406 719 b 150 661 264 719 203 700 l 86 726 b 65 736 79 733 72 736 b 43 715 53 736 43 726 b 53 694 43 708 46 701 l 115 629 b 42 433 67 574 42 508 z "},"$":{"ha":913,"x_min":0,"x_max":0,"o":"m 565 0 l 601 0 b 815 292 724 0 815 125 b 601 583 815 458 724 583 l 565 583 l 565 546 l 601 546 b 774 292 700 546 774 438 b 601 38 774 146 700 38 l 565 38 z m 318 546 l 601 546 l 601 583 l 318 583 z m 318 546 l 354 546 l 354 583 l 318 583 b 174 760 219 583 174 658 b 318 935 174 860 219 935 l 354 935 l 354 972 l 318 972 b 132 760 196 972 132 881 b 318 546 132 638 196 546 z m 347 935 l 678 935 b 699 953 689 935 699 943 b 678 972 699 964 689 972 l 347 972 z m 579 0 l 579 38 l 118 38 b 97 18 107 38 97 29 b 118 0 97 8 107 0 z m 431 -90 l 472 -90 l 472 1049 l 431 1049 z m 451 -111 b 472 -90 463 -111 472 -101 l 472 -58 l 431 -58 l 431 -90 b 451 -111 431 -101 440 -111 z m 451 1069 b 431 1049 440 1069 431 1060 l 431 1017 l 472 1017 l 472 1049 b 451 1069 472 1060 463 1069 z "},"€":{"ha":911,"x_min":0,"x_max":0,"o":"m 461 -22 b 826 254 639 -22 783 92 b 814 278 829 265 824 276 b 786 265 801 282 789 276 b 461 15 747 118 618 15 b 125 356 274 15 125 161 l 125 378 l 467 378 b 488 397 478 378 488 385 b 467 415 488 408 478 415 l 125 415 l 125 544 l 467 544 b 488 564 478 544 488 551 b 467 582 488 575 478 582 l 125 582 l 125 617 b 461 957 125 811 274 957 b 786 707 618 957 747 854 b 814 693 789 696 801 690 b 826 718 824 696 829 707 b 461 994 783 881 639 994 b 83 617 249 994 83 832 l 83 582 l 49 582 b 28 564 38 582 28 575 b 49 544 28 551 38 544 l 83 544 l 83 415 l 49 415 b 28 397 38 415 28 408 b 49 378 28 385 38 378 l 83 378 l 83 356 b 461 -22 83 140 249 -22 z "},"₴":{"ha":740,"x_min":0,"x_max":0,"o":"m 90 536 l 647 536 b 668 556 658 536 668 543 b 647 574 668 567 658 574 l 571 574 b 633 749 607 619 633 675 b 369 992 633 892 525 992 b 114 819 256 992 150 921 b 122 790 108 807 111 794 b 151 801 135 785 147 789 b 369 954 185 892 275 954 b 592 749 500 954 592 869 b 517 574 592 675 558 622 l 90 574 b 69 556 79 574 69 567 b 90 536 69 543 79 536 z m 650 444 l 93 444 b 72 425 82 444 72 438 b 93 407 72 414 82 407 l 169 407 b 107 232 133 361 107 306 b 371 -11 107 89 215 -11 b 628 161 485 -11 590 60 b 618 190 632 174 629 186 b 589 179 606 196 593 192 b 371 26 556 89 465 26 b 149 232 240 26 149 111 b 224 407 149 306 182 358 l 650 407 b 671 425 661 407 671 414 b 650 444 671 438 661 444 z "},"₽":{"ha":919,"x_min":0,"x_max":0,"o":"m 600 389 l 636 389 b 850 681 758 389 850 514 b 636 972 850 847 758 972 l 600 972 l 600 935 l 636 935 b 808 681 735 935 808 826 b 636 426 808 535 735 426 l 600 426 z m 111 0 l 153 0 l 153 854 l 111 854 z m 136 389 l 636 389 l 636 426 l 136 426 z m 111 854 l 111 828 l 153 828 l 153 856 b 228 935 153 894 192 935 l 261 935 l 261 972 l 228 972 b 111 854 164 972 111 919 z m 228 935 l 636 935 l 636 972 l 228 972 z m 132 -21 b 153 0 143 -21 153 -11 l 153 32 l 111 32 l 111 0 b 132 -21 111 -11 121 -21 z m 90 389 l 481 389 b 501 408 492 389 501 396 b 481 426 501 419 492 426 l 90 426 b 69 408 79 426 69 419 b 90 389 69 396 79 389 z m 650 297 l 93 297 b 72 278 82 297 72 290 b 93 260 72 267 82 260 l 650 260 b 671 278 661 260 671 267 b 650 297 671 290 661 297 z "},"₹":{"ha":764,"x_min":0,"x_max":0,"o":"m 624 135 l 624 0 l 665 0 l 665 135 b 451 426 665 301 574 426 l 415 426 l 415 389 l 451 389 b 624 135 550 389 624 281 z m 415 389 l 451 389 b 665 681 574 389 665 514 b 451 972 665 847 574 972 l 415 972 l 415 935 l 451 935 b 624 681 550 935 624 826 b 451 426 624 535 550 426 l 415 426 z m 90 389 l 451 389 l 451 426 l 90 426 z m 182 935 l 451 935 l 451 972 l 182 972 z m 644 -21 b 665 0 656 -21 665 -11 l 665 32 l 624 32 l 624 0 b 644 -21 624 -11 633 -21 z m 208 426 l 90 426 b 69 407 79 426 69 419 b 90 389 69 396 79 389 l 208 389 z m 674 700 l 117 700 b 96 681 106 700 96 693 b 117 663 96 669 106 663 l 674 663 b 694 681 685 663 694 669 b 674 700 694 693 685 700 z m 217 972 l 99 972 b 78 953 88 972 78 965 b 99 935 78 942 88 935 l 217 935 z m 661 979 l 104 979 b 83 960 93 979 83 972 b 104 942 83 949 93 942 l 661 942 b 682 960 672 942 682 949 b 661 979 682 972 672 979 z "},"₪":{"ha":861,"x_min":0,"x_max":0,"o":"m 63 -11 b 83 18 76 -11 83 -1 l 83 718 b 125 918 83 839 85 900 b 226 931 143 926 176 931 l 321 931 b 667 521 554 931 667 804 l 667 226 b 688 197 667 207 674 197 b 708 226 701 197 708 207 l 708 522 b 321 972 708 833 583 972 l 239 972 b 54 896 107 972 69 961 b 42 719 46 864 42 804 l 42 18 b 63 -11 42 -1 49 -11 z m 153 439 b 540 -11 153 128 278 -11 l 622 -11 b 808 65 754 -11 792 0 b 819 242 815 97 819 157 l 819 943 b 799 972 819 963 813 972 b 778 943 785 972 778 963 l 778 243 b 738 43 778 122 776 61 b 635 31 719 35 685 31 l 540 31 b 194 440 307 31 194 157 l 194 735 b 174 764 194 754 188 764 b 153 735 160 764 153 754 z "},"£":{"ha":738,"x_min":0,"x_max":0,"o":"m 90 0 l 647 0 b 668 18 658 0 668 7 b 647 38 668 31 658 38 l 381 38 b 196 417 381 214 272 300 l 522 417 b 543 435 533 417 543 424 b 522 454 543 447 533 454 l 174 454 b 122 658 143 510 122 575 b 374 957 122 842 219 957 b 611 772 494 957 579 888 b 640 750 617 751 629 747 b 651 788 646 751 660 760 b 374 994 613 917 513 994 b 81 658 193 994 81 865 b 125 454 81 574 99 510 l 90 454 b 69 435 79 454 69 447 b 90 417 69 424 79 417 l 144 417 b 342 38 218 290 332 211 l 90 38 b 69 18 79 38 69 31 b 90 0 69 7 79 0 z "},"¥":{"ha":921,"x_min":0,"x_max":0,"o":"m 182 125 l 739 125 b 760 143 750 125 760 132 b 739 163 760 156 750 163 l 182 163 b 161 143 171 163 161 156 b 182 125 161 132 171 125 z m 461 238 b 838 615 672 238 838 400 l 838 972 l 796 972 l 796 615 b 461 275 796 421 649 275 b 125 615 274 275 125 421 l 125 972 l 83 972 l 83 615 b 461 238 83 400 249 238 z m 460 -21 b 481 0 471 -21 481 -11 l 481 32 l 439 32 l 439 0 b 460 -21 439 -11 449 -21 z m 439 0 l 481 0 l 481 260 l 439 260 z m 104 993 b 83 972 93 993 83 983 l 83 940 l 125 940 l 125 972 b 104 993 125 983 115 993 z m 817 993 b 796 972 806 993 796 983 l 796 940 l 838 940 l 838 972 b 817 993 838 983 828 993 z m 182 229 l 739 229 b 760 247 750 229 760 236 b 739 267 760 260 750 267 l 182 267 b 161 247 171 267 161 260 b 182 229 161 236 171 229 z "},"+":{"ha":674,"x_min":0,"x_max":0,"o":"m 360 349 l 360 588 b 338 608 360 600 350 608 b 315 588 326 608 315 600 l 315 349 l 76 349 b 56 326 64 349 56 339 b 76 304 56 315 64 304 l 315 304 l 315 67 b 338 46 315 54 326 46 b 360 67 350 46 360 54 l 360 304 l 597 304 b 618 326 610 304 618 315 b 597 349 618 339 610 349 z "},"−":{"ha":807,"x_min":0,"x_max":0,"o":"m 63 308 l 744 308 b 765 328 756 308 765 315 b 744 346 765 339 756 346 l 63 346 b 42 328 51 346 42 339 b 63 308 42 315 51 308 z "},"×":{"ha":674,"x_min":0,"x_max":0,"o":"m 369 325 l 538 494 b 538 525 547 504 544 515 b 507 526 528 532 517 536 l 338 357 l 168 526 b 138 525 158 536 147 535 b 138 494 131 518 128 504 l 306 325 l 138 157 b 139 128 131 147 132 135 b 169 126 149 118 160 117 l 338 294 l 506 126 b 536 128 515 117 529 118 b 543 142 540 132 543 136 b 538 157 543 147 542 153 z "},"÷":{"ha":833,"x_min":0,"x_max":0,"o":"m 63 308 l 744 308 b 765 328 756 308 765 315 b 744 346 765 339 756 346 l 63 346 b 42 328 51 346 42 339 b 63 308 42 315 51 308 z m 403 92 b 433 121 419 92 433 104 b 403 151 433 138 419 151 b 374 121 386 151 374 138 b 403 92 374 104 386 92 z m 403 500 b 433 529 419 500 433 513 b 403 560 433 546 419 560 b 374 529 386 560 374 546 b 403 500 374 513 386 500 z "},"=":{"ha":833,"x_min":0,"x_max":0,"o":"m 63 447 l 744 447 b 765 467 756 447 765 454 b 744 485 765 478 756 485 l 63 485 b 42 467 51 485 42 478 b 63 447 42 454 51 447 z m 63 183 l 744 183 b 765 203 756 183 765 190 b 744 221 765 214 756 221 l 63 221 b 42 203 51 221 42 214 b 63 183 42 190 51 183 z "},"≠":{"ha":654,"x_min":0,"x_max":0,"o":"m 56 -28 b 93 -1 67 -28 79 -19 l 225 179 l 592 179 b 613 201 604 179 613 190 b 592 224 613 214 604 224 l 257 224 l 418 443 l 592 443 b 613 465 604 443 613 454 b 592 488 613 478 604 488 l 450 488 l 585 671 b 590 688 589 675 590 681 b 574 706 590 697 583 706 b 539 681 561 706 550 697 l 399 488 l 71 488 b 50 465 58 488 50 478 b 71 443 50 454 58 443 l 365 443 l 206 224 l 71 224 b 50 201 58 224 50 214 b 71 179 50 190 58 179 l 174 179 l 50 10 b 42 -12 44 1 42 -6 b 56 -28 42 -22 46 -28 z "},">":{"ha":511,"x_min":0,"x_max":0,"o":"m 81 690 b 67 694 76 693 72 694 b 42 671 54 694 42 686 b 49 653 42 664 44 657 l 421 369 l 49 86 b 42 68 44 82 42 75 b 67 44 42 53 54 44 b 81 49 72 44 76 46 l 460 350 b 469 369 467 354 469 361 b 460 389 469 378 467 385 z "},"<":{"ha":511,"x_min":0,"x_max":0,"o":"m 51 389 b 42 369 44 385 42 378 b 51 350 42 361 44 354 l 431 49 b 444 44 435 46 439 44 b 469 68 457 44 469 53 b 463 86 469 75 467 82 l 90 369 l 463 653 b 469 671 467 657 469 664 b 444 694 469 686 457 694 b 431 690 439 694 435 693 z "},"≥":{"ha":511,"x_min":0,"x_max":0,"o":"m 67 44 b 81 49 72 44 76 46 l 460 350 b 469 369 467 354 469 361 b 460 389 469 378 467 385 l 81 690 b 67 694 76 693 72 694 b 42 671 54 694 42 686 b 49 653 42 664 44 657 l 421 369 l 49 86 b 42 68 44 82 42 75 b 67 44 42 53 54 44 z m 449 -22 b 469 1 460 -22 469 -10 b 449 22 469 13 461 22 l 63 22 b 42 1 49 22 42 15 b 63 -22 42 -11 50 -22 z "},"≤":{"ha":511,"x_min":0,"x_max":0,"o":"m 444 44 b 469 68 457 44 469 53 b 463 86 469 75 467 82 l 90 369 l 463 653 b 469 671 467 657 469 664 b 444 694 469 686 457 694 b 431 690 439 694 435 693 l 51 389 b 42 369 44 385 42 378 b 51 350 42 361 44 354 l 431 49 b 444 44 435 46 439 44 z m 449 -22 b 469 1 461 -22 469 -11 b 449 22 469 15 463 22 l 63 22 b 42 1 50 22 42 13 b 63 -22 42 -10 51 -22 z "},"±":{"ha":807,"x_min":0,"x_max":0,"o":"m 426 435 l 426 674 b 404 694 426 686 417 694 b 382 674 393 694 382 686 l 382 435 l 143 435 b 122 413 131 435 122 425 b 143 390 122 401 131 390 l 382 390 l 382 153 b 404 132 382 140 393 132 b 426 153 417 132 426 140 l 426 390 l 664 390 b 685 413 676 390 685 401 b 664 435 685 425 676 435 z m 63 3 l 744 3 b 765 22 756 3 765 10 b 744 40 765 33 756 40 l 63 40 b 42 22 51 40 42 33 b 63 3 42 10 51 3 z "},"≈":{"ha":646,"x_min":0,"x_max":0,"o":"m 63 174 b 82 183 71 174 78 176 b 217 276 126 251 161 276 b 304 232 239 276 261 264 b 432 174 360 194 393 174 b 601 286 503 174 544 201 b 604 297 603 290 604 293 b 583 318 604 310 594 318 b 563 308 574 318 567 315 b 433 215 524 240 490 215 b 343 260 411 215 388 228 b 218 318 288 299 256 318 b 46 207 146 318 103 290 b 42 194 43 203 42 199 b 63 174 42 182 51 174 z m 63 364 b 82 374 71 364 78 367 b 217 467 126 442 161 467 b 304 422 239 467 261 454 b 432 364 360 385 393 364 b 601 476 503 364 544 392 b 604 488 603 481 604 483 b 583 508 604 500 594 508 b 563 499 574 508 567 506 b 433 406 524 431 490 406 b 343 450 411 406 388 418 b 218 508 288 489 256 508 b 46 397 146 508 103 481 b 42 385 43 393 42 389 b 63 364 42 372 51 364 z "},"~":{"ha":646,"x_min":0,"x_max":0,"o":"m 63 257 b 82 267 71 257 78 260 b 217 360 126 335 161 360 b 304 315 239 360 261 347 b 432 257 360 278 393 257 b 601 369 503 257 544 285 b 604 381 603 374 604 376 b 583 401 604 393 594 401 b 563 392 574 401 567 399 b 433 299 524 324 490 299 b 343 343 411 299 388 311 b 218 401 288 382 256 401 b 46 290 146 401 103 374 b 42 278 43 286 42 282 b 63 257 42 265 51 257 z "},"¬":{"ha":640,"x_min":0,"x_max":0,"o":"m 585 374 b 501 454 585 422 551 454 l 74 454 b 56 433 63 454 56 444 b 74 413 56 422 63 413 l 472 413 b 543 342 510 413 543 379 l 543 221 b 564 203 543 210 553 203 b 585 221 575 203 585 210 z "},"^":{"ha":456,"x_min":0,"x_max":0,"o":"m 247 932 b 228 942 243 939 236 942 b 208 932 219 942 213 939 l 60 761 b 56 747 57 757 56 753 b 79 722 56 735 64 722 b 97 729 86 722 93 725 l 228 893 l 358 729 b 376 722 363 725 369 722 b 400 747 392 722 400 735 b 396 761 400 753 399 757 z "},"∞":{"ha":1183,"x_min":0,"x_max":0,"o":"m 319 121 b 97 324 190 121 97 197 b 319 519 97 446 190 519 b 571 324 458 519 571 438 b 319 121 571 204 458 121 z m 56 326 b 319 79 56 183 165 79 b 592 232 436 79 547 139 b 864 79 636 139 747 79 b 1128 326 1018 79 1128 183 b 864 561 1128 461 1018 561 b 592 415 746 561 636 506 b 319 561 547 506 438 561 b 56 326 165 561 56 461 z m 613 324 b 864 519 613 438 725 519 b 1086 324 993 519 1086 446 b 864 121 1086 197 993 121 b 613 324 725 121 613 204 z "},"∫":{"ha":875,"x_min":0,"x_max":0,"o":"m 583 796 b 713 931 613 894 653 931 l 792 931 b 819 951 810 931 819 939 b 792 972 819 964 810 972 l 679 972 b 551 838 622 972 581 936 l 275 -74 b 161 -181 254 -140 215 -181 l 83 -181 b 56 -201 65 -181 56 -189 b 83 -222 56 -214 65 -222 l 193 -222 b 308 -115 249 -222 288 -182 z "},"∏":{"ha":896,"x_min":0,"x_max":0,"o":"m 56 949 b 83 924 56 932 65 924 l 197 924 b 225 896 215 924 225 914 l 225 -196 b 250 -224 225 -212 238 -224 b 274 -196 263 -224 274 -212 l 274 896 b 301 924 274 914 283 924 l 593 924 b 621 896 611 924 621 914 l 621 -196 b 646 -224 621 -212 633 -224 b 669 -196 658 -224 669 -212 l 669 896 b 697 924 669 914 679 924 l 813 924 b 840 949 831 924 840 932 b 813 972 840 964 831 972 l 83 972 b 56 949 65 972 56 964 z "},"∑":{"ha":626,"x_min":0,"x_max":0,"o":"m 365 369 b 376 406 372 382 376 394 b 367 436 376 415 374 426 l 60 925 b 56 942 57 929 56 935 b 78 972 56 958 63 972 l 551 972 b 571 953 564 972 571 964 l 571 950 b 551 931 571 939 564 931 l 149 931 b 131 903 138 931 131 918 b 135 883 131 896 132 889 l 418 438 b 428 407 425 428 428 417 b 417 371 428 396 424 383 l 135 -133 b 132 -144 133 -139 132 -143 b 176 -181 132 -162 149 -181 l 551 -181 b 571 -200 564 -181 571 -189 l 571 -203 b 551 -222 571 -214 564 -222 l 92 -222 b 56 -192 68 -222 56 -208 b 60 -175 56 -186 57 -181 z "},"√":{"ha":833,"x_min":0,"x_max":0,"o":"m 225 -222 b 296 -139 260 -222 283 -183 l 578 796 b 749 931 606 890 671 931 l 828 931 b 856 951 846 931 856 939 b 828 972 856 964 846 972 l 715 972 b 546 838 639 972 574 932 l 256 -118 b 242 -157 250 -136 246 -150 b 222 -168 238 -164 231 -168 b 197 -133 203 -168 204 -158 l 100 310 b 76 325 99 319 88 325 b 57 301 64 325 53 317 l 154 -146 b 225 -222 164 -186 179 -222 z "},"∂":{"ha":674,"x_min":0,"x_max":0,"o":"m 338 19 b 97 286 203 19 97 129 l 97 342 b 224 635 97 479 150 582 b 338 674 260 661 297 674 b 576 397 469 674 576 554 l 576 342 b 338 19 576 156 475 19 z m 56 286 b 338 -22 56 104 181 -22 b 618 342 504 -22 618 131 l 618 561 b 310 1049 618 843 485 1049 b 288 1028 297 1049 288 1039 b 307 1010 288 1015 294 1010 b 575 589 456 1010 575 836 b 338 715 526 671 443 715 b 97 542 243 715 151 654 b 56 343 69 485 56 419 z "},"%":{"ha":707,"x_min":0,"x_max":0,"o":"m 643 969 b 629 994 650 982 642 994 b 596 969 617 994 606 986 l 58 10 b 72 -14 51 -3 60 -14 b 110 15 85 -14 97 -4 z m 56 768 b 163 614 56 678 100 614 b 268 767 224 614 268 676 l 268 839 b 163 993 268 929 224 993 b 56 839 100 993 56 929 z m 97 839 b 163 951 97 904 114 951 b 226 839 206 951 226 914 l 226 767 b 163 656 226 699 211 656 b 97 768 119 656 97 693 z m 439 132 b 546 -22 439 42 483 -22 b 651 131 607 -22 651 40 l 651 203 b 546 357 651 293 607 357 b 439 203 483 357 439 293 z m 481 203 b 546 315 481 268 497 315 b 610 203 589 315 610 278 l 610 131 b 546 19 610 63 594 19 b 481 132 503 19 481 57 z "},"‰":{"ha":1000,"x_min":0,"x_max":0,"o":"m 643 969 b 629 994 650 982 642 994 b 596 969 617 994 606 986 l 58 10 b 72 -14 51 -3 60 -14 b 110 15 85 -14 97 -4 z m 56 768 b 163 614 56 678 100 614 b 268 767 224 614 268 676 l 268 839 b 163 993 268 929 224 993 b 56 839 100 993 56 929 z m 97 839 b 163 951 97 904 114 951 b 226 839 206 951 226 914 l 226 767 b 163 656 226 699 211 656 b 97 768 119 656 97 693 z m 439 132 b 546 -22 439 42 483 -22 b 651 131 607 -22 651 40 l 651 203 b 546 357 651 293 607 357 b 439 203 483 357 439 293 z m 481 203 b 546 315 481 268 497 315 b 610 203 589 315 610 278 l 610 131 b 546 19 610 63 594 19 b 481 132 503 19 481 57 z m 732 132 b 839 -22 732 42 776 -22 b 944 131 900 -22 944 40 l 944 203 b 839 357 944 293 900 357 b 732 203 776 357 732 293 z m 774 203 b 839 315 774 268 790 315 b 903 203 882 315 903 278 l 903 131 b 839 19 903 63 888 19 b 774 132 796 19 774 57 z "}}}
